<?xml version="1.0" encoding="UTF-8" standalone="no"?>
<!-- Created with Inkscape (http://www.inkscape.org/) -->

<svg
   width="650"
   height="800"
   viewBox="0 0 171.97915 211.66667"
   version="1.1"
   id="svg1"
   inkscape:version="1.4.2 (f4327f4, 2025-05-13)"
   sodipodi:docname="Aristoteles=takn.svg"
   xmlns:inkscape="http://www.inkscape.org/namespaces/inkscape"
   xmlns:sodipodi="http://sodipodi.sourceforge.net/DTD/sodipodi-0.dtd"
   xmlns="http://www.w3.org/2000/svg"
   xmlns:svg="http://www.w3.org/2000/svg">
  <sodipodi:namedview
     id="namedview1"
     pagecolor="#ffffff"
     bordercolor="#000000"
     borderopacity="0.25"
     inkscape:showpageshadow="2"
     inkscape:pageopacity="0.0"
     inkscape:pagecheckerboard="0"
     inkscape:deskcolor="#d1d1d1"
     inkscape:document-units="mm"
     inkscape:zoom="0.68862935"
     inkscape:cx="397.89184"
     inkscape:cy="561.25984"
     inkscape:window-width="1920"
     inkscape:window-height="991"
     inkscape:window-x="-9"
     inkscape:window-y="-9"
     inkscape:window-maximized="1"
     inkscape:current-layer="layer1" />
  <defs
     id="defs1" />
  <g
     inkscape:label="Layer 1"
     inkscape:groupmode="layer"
     id="layer1">
    <path
       id="path1"
       style="fill:#1a1a1a;stroke-width:0.264583"
       d="M 70.119751 8.452714 L 70.119751 34.186544 A 77.6119 76.843468 0 0 0 8.8371867 109.30961 A 77.6119 76.843468 0 0 0 70.119751 184.43319 L 70.119751 210.16702 L 102.77822 210.16702 L 102.77822 184.43319 A 77.6119 76.843468 0 0 0 164.06079 109.30961 A 77.6119 76.843468 0 0 0 102.77822 34.186544 L 102.77822 8.452714 L 70.119751 8.452714 z M 70.119751 59.096134 L 70.119751 161.82888 A 54.366753 53.790424 0 0 1 31.890043 110.46251 A 54.366753 53.790424 0 0 1 70.119751 59.096134 z M 102.77822 59.216024 A 54.366753 53.790424 0 0 1 140.62346 110.46251 A 54.366753 53.790424 0 0 1 102.77822 161.70899 L 102.77822 59.216024 z " />
  </g>
</svg>
